# xmcd
#
# Track frame offsets: 
#        150
#        18560
#        49005
#        60152
#        86937
#        101482
#        115412
#        140752
#        151817
#        170077
#        193305
#        208725
#        227415
#        240620
#        261475
#        275070
#
# Disc length: 3968 seconds
#
# Revision: 1
# Processed by: cddbd v1.5.2PL0 Copyright (c) Steve Scherf et al.
# Submitted via: ExactAudioCopy v0.99pb4
#
DISCID=ec0f7e10
DTITLE=Various Artist - Blues Buster
DYEAR=1996
DGENRE=Blues
TTITLE0=Kooper, Al and Michael Bloomfield - The weight
TTITLE1=Allman Brothers Band, The - Gambler's roll
TTITLE2=Joplin, Janis - Buried alive in the blues
TTITLE3=Blood, Sweat And Tears - I love you more than you'll ever know
TTITLE4=Chicken Shack - I'd rather go blind
TTITLE5=Fleetwood Mac - Albatross
TTITLE6=Moore, Gary - Boogie my way back home
TTITLE7=Great Society, The With Grace Slick - Outlaw blues
TTITLE8=Atkins, Chet and Mark Knopfler - Poor boy blues
TTITLE9=Bloomfield, Michael - When I need you
TTITLE10=Moby Grape - Can't be so bad
TTITLE11=Waters, Muddy - Baby, please don't go
TTITLE12=Pacific Gas and Electric - Bluesbusters
TTITLE13=Vaughn, Stevie Ray - The sky is crying
TTITLE14=Mahal, Taj - Six days on the road
TTITLE15=Morrison, Van - It's all right
EXTD=
EXTT0=
EXTT1=
EXTT2=
EXTT3=
EXTT4=
EXTT5=
EXTT6=
EXTT7=
EXTT8=
EXTT9=
EXTT10=
EXTT11=
EXTT12=
EXTT13=
EXTT14=
EXTT15=
PLAYORDER=
